<svg width="212" height="211" viewBox="0 0 212 211" fill="none" xmlns="http://www.w3.org/2000/svg">
<path d="M202.741 111.595H204.129C204.794 111.595 205.248 111.497 205.489 111.298C205.73 111.099 205.851 110.838 205.851 110.512C205.851 110.302 205.792 110.114 205.677 109.949C205.559 109.783 205.4 109.657 205.192 109.575C204.985 109.494 204.603 109.452 204.042 109.452H202.741V111.595ZM201.594 115.59V108.493H204.034C204.867 108.493 205.47 108.557 205.843 108.689C206.216 108.821 206.513 109.048 206.734 109.374C206.956 109.702 207.065 110.047 207.065 110.414C207.065 110.933 206.883 111.385 206.513 111.769C206.14 112.156 205.652 112.369 205.038 112.417C205.29 112.524 205.489 112.647 205.644 112.793C205.927 113.073 206.277 113.542 206.689 114.201L207.556 115.59H206.157L205.529 114.47C205.032 113.592 204.634 113.04 204.331 112.821C204.121 112.655 203.815 112.574 203.414 112.574H202.741V115.59H201.594ZM204.488 106.437C203.56 106.437 202.66 106.675 201.785 107.149C200.907 107.623 200.22 108.305 199.727 109.188C199.231 110.069 198.984 110.989 198.984 111.946C198.984 112.894 199.228 113.805 199.713 114.678C200.198 115.547 200.879 116.226 201.751 116.714C202.626 117.2 203.538 117.444 204.488 117.444C205.439 117.444 206.35 117.2 207.225 116.714C208.097 116.226 208.776 115.547 209.261 114.678C209.743 113.805 209.984 112.894 209.984 111.946C209.984 110.989 209.74 110.069 209.247 109.188C208.756 108.305 208.069 107.623 207.189 107.149C206.308 106.675 205.408 106.437 204.488 106.437ZM204.488 105.343C205.596 105.343 206.675 105.629 207.73 106.198C208.784 106.765 209.606 107.578 210.195 108.636C210.783 109.693 211.078 110.796 211.078 111.946C211.078 113.082 210.789 114.173 210.209 115.222C209.628 116.271 208.815 117.087 207.769 117.668C206.723 118.246 205.63 118.538 204.488 118.538C203.347 118.538 202.253 118.246 201.207 117.668C200.161 117.087 199.348 116.271 198.765 115.222C198.182 114.173 197.89 113.082 197.89 111.946C197.89 110.796 198.185 109.693 198.776 108.636C199.368 107.578 200.192 106.765 201.247 106.198C202.301 105.629 203.383 105.343 204.488 105.343Z" fill="url(#paint0_linear_36_996)"/>
<path d="M54.1938 86.3252L54.2247 5.05758H73.9825C73.9825 5.05758 75.5024 38.6171 106.942 38.6171C136.615 38.6171 139.417 5.0071 139.417 5.0071H159.713V86.3111H139.936C139.936 86.3111 138.416 53.3996 106.981 53.3996C77.3026 53.3996 74.5013 86.3252 74.5013 86.3252H54.1938ZM135.676 9.15527e-05C135.656 2.29462 134.095 33.7503 106.976 33.7503C79.187 33.7503 77.8326 0.0197296 77.8326 0.0197296H49.3988L49.3735 91.335H78.2784C78.2981 89.5257 79.8628 58.0728 106.987 58.0728C134.77 58.0728 136.116 91.3125 136.116 91.3125H164.53V9.15527e-05H135.676Z" fill="url(#paint1_linear_36_996)"/>
<path fill-rule="evenodd" clip-rule="evenodd" d="M70.0834 7.49205H57.2517V10.7964H70.6582C70.3077 8.64773 70.0834 7.49205 70.0834 7.49205Z" fill="url(#paint2_linear_36_996)"/>
<path fill-rule="evenodd" clip-rule="evenodd" d="M71.6789 14.7682H57.2714L57.2629 18.123H72.7501C72.3491 16.9562 71.9397 15.8257 71.6789 14.7682Z" fill="url(#paint3_linear_36_996)"/>
<path fill-rule="evenodd" clip-rule="evenodd" d="M74.3984 22.0998H57.24V25.4546H76.2379C75.5593 24.3438 74.9228 23.2134 74.3984 22.0998Z" fill="url(#paint4_linear_36_996)"/>
<path fill-rule="evenodd" clip-rule="evenodd" d="M78.7141 29.4273H57.2317L57.2205 32.7905H81.6388C80.3741 31.7442 79.7235 30.6138 78.7141 29.4273Z" fill="url(#paint5_linear_36_996)"/>
<path fill-rule="evenodd" clip-rule="evenodd" d="M143.426 7.49205H156.687V10.7964H142.667C143.107 9.08812 143.426 7.49205 143.426 7.49205Z" fill="url(#paint6_linear_36_996)"/>
<path fill-rule="evenodd" clip-rule="evenodd" d="M141.524 14.7682H156.672V18.123H140.445C140.848 16.9562 141.255 15.8257 141.524 14.7682Z" fill="url(#paint7_linear_36_996)"/>
<path fill-rule="evenodd" clip-rule="evenodd" d="M138.677 22.0998H156.635V25.4546H136.952C137.536 24.5093 137.987 23.5584 138.677 22.0998Z" fill="url(#paint8_linear_36_996)"/>
<path fill-rule="evenodd" clip-rule="evenodd" d="M134.233 29.4273H156.641V32.7905H131.247C132.503 31.7442 133.218 30.6138 134.233 29.4273Z" fill="url(#paint9_linear_36_996)"/>
<path fill-rule="evenodd" clip-rule="evenodd" d="M57.2319 47.4526H156.672V44.0894H57.2319V47.4526Z" fill="url(#paint10_linear_36_996)"/>
<path fill-rule="evenodd" clip-rule="evenodd" d="M143.356 83.8413H156.628V80.5398H142.961C143.292 82.5706 143.356 83.8413 143.356 83.8413Z" fill="url(#paint11_linear_36_996)"/>
<path fill-rule="evenodd" clip-rule="evenodd" d="M141.837 76.5679H156.685V73.2102H140.836C141.231 74.3827 141.568 75.5132 141.837 76.5679Z" fill="url(#paint12_linear_36_996)"/>
<path fill-rule="evenodd" clip-rule="evenodd" d="M138.364 69.2368H156.641V65.8764H136.564C137.24 66.99 137.848 68.1204 138.364 69.2368Z" fill="url(#paint13_linear_36_996)"/>
<path fill-rule="evenodd" clip-rule="evenodd" d="M133.704 61.9062H156.642V58.5458H130.314C131.573 59.5893 132.703 60.7253 133.704 61.9062Z" fill="url(#paint14_linear_36_996)"/>
<path fill-rule="evenodd" clip-rule="evenodd" d="M70.4018 83.8413H57.2505V80.5398H70.7916C70.4663 82.5706 70.4018 83.8413 70.4018 83.8413Z" fill="url(#paint15_linear_36_996)"/>
<path fill-rule="evenodd" clip-rule="evenodd" d="M71.915 76.5679H57.2718L57.2634 73.2102H72.9245C72.5207 74.3827 72.1842 75.5132 71.915 76.5679Z" fill="url(#paint16_linear_36_996)"/>
<path fill-rule="evenodd" clip-rule="evenodd" d="M75.3878 69.2368H57.2395V65.8764H77.188C76.5179 66.99 75.9122 68.1204 75.3878 69.2368Z" fill="url(#paint17_linear_36_996)"/>
<path fill-rule="evenodd" clip-rule="evenodd" d="M80.0421 61.9062H57.2334V58.5458H83.4435C82.1817 59.5893 81.0516 60.7253 80.0421 61.9062Z" fill="url(#paint18_linear_36_996)"/>
<path fill-rule="evenodd" clip-rule="evenodd" d="M120.841 39.9321C123.827 38.7316 124.525 37.9602 126.491 36.7596H156.672V39.9321H120.841Z" fill="url(#paint19_linear_36_996)"/>
<path fill-rule="evenodd" clip-rule="evenodd" d="M93.4223 39.9321C90.4359 38.7316 89.7377 37.9602 87.772 36.7596H57.252V39.9321H93.4223Z" fill="url(#paint20_linear_36_996)"/>
<path fill-rule="evenodd" clip-rule="evenodd" d="M93.084 51.3053C90.0976 52.5002 89.3994 53.2772 87.4337 54.4722H57.2529V51.3053H93.084Z" fill="url(#paint21_linear_36_996)"/>
<path fill-rule="evenodd" clip-rule="evenodd" d="M120.502 51.3053C123.483 52.5002 124.187 53.2772 126.153 54.4722H156.673V51.3053H120.502Z" fill="url(#paint22_linear_36_996)"/>
<path d="M12.9607 112.143H0V154.182H12.9607V112.143Z" fill="url(#paint23_linear_36_996)"/>
<path d="M27.6977 112.142V122.764H14.6865V132.338H27.6977V154.181H40.6639V112.142H27.6977Z" fill="url(#paint24_linear_36_996)"/>
<path d="M96.5819 112.214H83.7278V154.312H100.272C100.272 154.312 117.515 154.848 117.515 137.474C117.515 137.474 118.877 121.692 97.9251 121.692V131.109C97.9251 131.109 105.866 130.447 105.866 139.033C105.866 139.033 106.071 145.361 96.5819 145.361V112.214Z" fill="url(#paint25_linear_36_996)"/>
<path d="M152.433 112.214H139.593V154.312H156.123C156.123 154.312 173.366 154.848 173.366 137.474C173.366 137.474 174.734 121.692 153.782 121.692V131.109C153.782 131.109 161.718 130.447 161.718 139.033C161.718 139.033 161.928 145.361 152.433 145.361V112.214Z" fill="url(#paint26_linear_36_996)"/>
<path d="M49.5638 121.517V130.737H59.9699C67.8075 130.737 66.7419 135.332 66.7419 135.332V146.516H59.7933C57.5976 146.516 57.5976 143.503 57.5976 143.503C57.5976 140.423 59.8465 140.415 59.8465 140.415H64.7369V134.277H54.4178C45.0268 134.277 44.9482 144.479 44.9482 144.479C44.9482 154.182 56.7368 154.215 56.7368 154.215H79.2174V134.266C79.2174 119.481 65.8109 121.517 65.8109 121.517H49.5638Z" fill="url(#paint27_linear_36_996)"/>
<path d="M182.346 121.517V130.737H192.752C200.59 130.737 199.524 135.332 199.524 135.332V146.516H192.576C190.366 146.516 190.366 143.503 190.366 143.503C190.366 140.423 192.621 140.415 192.621 140.415H197.514V134.277H187.2C177.818 134.277 177.725 144.479 177.725 144.479C177.725 154.182 189.519 154.215 189.519 154.215H212V134.266C212 119.481 198.585 121.517 198.585 121.517H182.346Z" fill="url(#paint28_linear_36_996)"/>
<path d="M121.297 112.237C121.199 112.669 121.146 113.132 121.146 113.601C121.146 117.354 124.444 120.392 128.504 120.392C132.564 120.392 135.87 117.354 135.87 113.601C135.87 113.132 135.812 112.669 135.719 112.237H121.297Z" fill="url(#paint29_linear_36_996)"/>
<path d="M135.282 121.124H121.735V154.221H135.282V121.124Z" fill="url(#paint30_linear_36_996)"/>
<path d="M166.234 167.38C165.994 167.74 165.621 168.28 165.114 169C164.048 168.533 163.094 168.3 162.254 168.3C161.148 168.3 160.594 168.713 160.594 169.54C160.594 169.913 160.721 170.207 160.974 170.42C161.228 170.633 161.754 170.893 162.554 171.2C163.994 171.76 165.028 172.367 165.654 173.02C166.294 173.673 166.614 174.46 166.614 175.38C166.614 176.673 166.128 177.673 165.154 178.38C164.354 178.953 163.361 179.24 162.174 179.24C160.774 179.24 159.281 178.733 157.694 177.72L158.854 176.1C159.628 176.62 160.621 176.88 161.834 176.88C163.208 176.88 163.894 176.327 163.894 175.22C163.894 174.5 163.154 173.887 161.674 173.38C159.288 172.58 158.094 171.3 158.094 169.54C158.094 168.473 158.494 167.627 159.294 167C160.041 166.4 161.034 166.1 162.274 166.1C163.688 166.1 165.008 166.527 166.234 167.38ZM174.557 171.94H171.957V176.44C171.957 177.107 172.177 177.44 172.617 177.44C173.017 177.44 173.517 177.267 174.117 176.92L174.957 178.2C174.01 178.947 172.964 179.32 171.817 179.32C170.217 179.32 169.417 178.44 169.417 176.68V171.94H168.157V169.92H169.437V168.3C170.104 167.94 170.95 167.493 171.977 166.96V169.92H174.557V171.94ZM180.551 169.68C182.044 169.68 183.204 170.207 184.031 171.26C184.724 172.14 185.071 173.213 185.071 174.48C185.071 175.96 184.557 177.16 183.531 178.08C182.677 178.853 181.684 179.24 180.551 179.24C179.231 179.24 178.124 178.747 177.231 177.76C176.431 176.867 176.031 175.773 176.031 174.48C176.031 173.013 176.477 171.827 177.371 170.92C178.184 170.093 179.244 169.68 180.551 169.68ZM180.551 177.36C181.844 177.36 182.491 176.4 182.491 174.48C182.491 172.48 181.844 171.48 180.551 171.48C179.257 171.48 178.611 172.48 178.611 174.48C178.611 176.4 179.257 177.36 180.551 177.36ZM189.337 169.92L189.577 170.72C189.71 170.44 189.964 170.2 190.337 170C190.724 169.787 191.117 169.68 191.517 169.68C192.717 169.68 193.61 170.247 194.197 171.38L192.077 172.54C191.637 172.033 191.17 171.78 190.677 171.78C190.224 171.78 189.89 172.013 189.677 172.48V179H187.197V169.92H189.337ZM203.429 175.28H197.189C197.243 175.893 197.489 176.407 197.929 176.82C198.383 177.22 198.916 177.42 199.529 177.42C200.396 177.42 201.303 177.153 202.249 176.62L202.889 177.96C201.929 178.813 200.729 179.24 199.289 179.24C197.743 179.24 196.536 178.8 195.669 177.92C194.843 177.093 194.429 175.953 194.429 174.5C194.429 173.073 194.896 171.893 195.829 170.96C196.669 170.107 197.736 169.68 199.029 169.68C200.469 169.68 201.589 170.167 202.389 171.14C203.083 171.967 203.429 173.04 203.429 174.36V175.28ZM197.049 173.42H200.909C200.843 172.113 200.209 171.46 199.009 171.46C197.849 171.46 197.196 172.113 197.049 173.42ZM210.857 172.12C210.203 171.693 209.457 171.48 208.617 171.48C207.977 171.48 207.657 171.753 207.657 172.3C207.657 172.807 208.09 173.167 208.957 173.38C210.037 173.647 210.77 173.947 211.157 174.28C211.717 174.76 211.997 175.48 211.997 176.44C211.997 177.293 211.69 177.973 211.077 178.48C210.477 178.987 209.663 179.24 208.637 179.24C207.183 179.24 205.957 178.827 204.957 178L205.877 176.6C206.57 177.147 207.403 177.42 208.377 177.42C208.763 177.42 209.077 177.327 209.317 177.14C209.557 176.953 209.677 176.707 209.677 176.4C209.677 175.84 209.203 175.473 208.257 175.3C206.23 174.913 205.217 173.927 205.217 172.34C205.217 171.58 205.523 170.947 206.137 170.44C206.763 169.933 207.543 169.68 208.477 169.68C209.743 169.68 210.843 170.047 211.777 170.78L210.857 172.12Z" fill="#1E1E1E"/>
<defs>
<linearGradient id="paint0_linear_36_996" x1="204.484" y1="118.538" x2="204.484" y2="105.343" gradientUnits="userSpaceOnUse">
<stop stop-color="#5622CD"/>
<stop offset="1" stop-color="#7C21CC"/>
</linearGradient>
<linearGradient id="paint1_linear_36_996" x1="106.952" y1="91.335" x2="106.952" y2="9.15527e-05" gradientUnits="userSpaceOnUse">
<stop stop-color="#5622CD"/>
<stop offset="1" stop-color="#7C21CC"/>
</linearGradient>
<linearGradient id="paint2_linear_36_996" x1="63.955" y1="10.7964" x2="63.955" y2="7.49205" gradientUnits="userSpaceOnUse">
<stop stop-color="#5622CD"/>
<stop offset="1" stop-color="#7C21CC"/>
</linearGradient>
<linearGradient id="paint3_linear_36_996" x1="65.0065" y1="18.123" x2="65.0065" y2="14.7682" gradientUnits="userSpaceOnUse">
<stop stop-color="#5622CD"/>
<stop offset="1" stop-color="#7C21CC"/>
</linearGradient>
<linearGradient id="paint4_linear_36_996" x1="66.739" y1="25.4546" x2="66.739" y2="22.0998" gradientUnits="userSpaceOnUse">
<stop stop-color="#5622CD"/>
<stop offset="1" stop-color="#7C21CC"/>
</linearGradient>
<linearGradient id="paint5_linear_36_996" x1="69.4296" y1="32.7905" x2="69.4296" y2="29.4273" gradientUnits="userSpaceOnUse">
<stop stop-color="#5622CD"/>
<stop offset="1" stop-color="#7C21CC"/>
</linearGradient>
<linearGradient id="paint6_linear_36_996" x1="149.677" y1="10.7964" x2="149.677" y2="7.49205" gradientUnits="userSpaceOnUse">
<stop stop-color="#5622CD"/>
<stop offset="1" stop-color="#7C21CC"/>
</linearGradient>
<linearGradient id="paint7_linear_36_996" x1="148.558" y1="18.123" x2="148.558" y2="14.7682" gradientUnits="userSpaceOnUse">
<stop stop-color="#5622CD"/>
<stop offset="1" stop-color="#7C21CC"/>
</linearGradient>
<linearGradient id="paint8_linear_36_996" x1="146.793" y1="25.4546" x2="146.793" y2="22.0998" gradientUnits="userSpaceOnUse">
<stop stop-color="#5622CD"/>
<stop offset="1" stop-color="#7C21CC"/>
</linearGradient>
<linearGradient id="paint9_linear_36_996" x1="143.944" y1="32.7905" x2="143.944" y2="29.4273" gradientUnits="userSpaceOnUse">
<stop stop-color="#5622CD"/>
<stop offset="1" stop-color="#7C21CC"/>
</linearGradient>
<linearGradient id="paint10_linear_36_996" x1="106.952" y1="47.4526" x2="106.952" y2="44.0894" gradientUnits="userSpaceOnUse">
<stop stop-color="#5622CD"/>
<stop offset="1" stop-color="#7C21CC"/>
</linearGradient>
<linearGradient id="paint11_linear_36_996" x1="149.795" y1="83.8413" x2="149.795" y2="80.5398" gradientUnits="userSpaceOnUse">
<stop stop-color="#5622CD"/>
<stop offset="1" stop-color="#7C21CC"/>
</linearGradient>
<linearGradient id="paint12_linear_36_996" x1="148.76" y1="76.5679" x2="148.76" y2="73.2102" gradientUnits="userSpaceOnUse">
<stop stop-color="#5622CD"/>
<stop offset="1" stop-color="#7C21CC"/>
</linearGradient>
<linearGradient id="paint13_linear_36_996" x1="146.602" y1="69.2368" x2="146.602" y2="65.8764" gradientUnits="userSpaceOnUse">
<stop stop-color="#5622CD"/>
<stop offset="1" stop-color="#7C21CC"/>
</linearGradient>
<linearGradient id="paint14_linear_36_996" x1="143.478" y1="61.9062" x2="143.478" y2="58.5458" gradientUnits="userSpaceOnUse">
<stop stop-color="#5622CD"/>
<stop offset="1" stop-color="#7C21CC"/>
</linearGradient>
<linearGradient id="paint15_linear_36_996" x1="64.021" y1="83.8413" x2="64.021" y2="80.5398" gradientUnits="userSpaceOnUse">
<stop stop-color="#5622CD"/>
<stop offset="1" stop-color="#7C21CC"/>
</linearGradient>
<linearGradient id="paint16_linear_36_996" x1="65.0939" y1="76.5679" x2="65.0939" y2="73.2102" gradientUnits="userSpaceOnUse">
<stop stop-color="#5622CD"/>
<stop offset="1" stop-color="#7C21CC"/>
</linearGradient>
<linearGradient id="paint17_linear_36_996" x1="67.2138" y1="69.2368" x2="67.2138" y2="65.8764" gradientUnits="userSpaceOnUse">
<stop stop-color="#5622CD"/>
<stop offset="1" stop-color="#7C21CC"/>
</linearGradient>
<linearGradient id="paint18_linear_36_996" x1="70.3385" y1="61.9062" x2="70.3385" y2="58.5458" gradientUnits="userSpaceOnUse">
<stop stop-color="#5622CD"/>
<stop offset="1" stop-color="#7C21CC"/>
</linearGradient>
<linearGradient id="paint19_linear_36_996" x1="138.756" y1="39.9321" x2="138.756" y2="36.7596" gradientUnits="userSpaceOnUse">
<stop stop-color="#5622CD"/>
<stop offset="1" stop-color="#7C21CC"/>
</linearGradient>
<linearGradient id="paint20_linear_36_996" x1="75.3371" y1="39.9321" x2="75.3371" y2="36.7596" gradientUnits="userSpaceOnUse">
<stop stop-color="#5622CD"/>
<stop offset="1" stop-color="#7C21CC"/>
</linearGradient>
<linearGradient id="paint21_linear_36_996" x1="75.1685" y1="54.4722" x2="75.1685" y2="51.3053" gradientUnits="userSpaceOnUse">
<stop stop-color="#5622CD"/>
<stop offset="1" stop-color="#7C21CC"/>
</linearGradient>
<linearGradient id="paint22_linear_36_996" x1="138.588" y1="54.4722" x2="138.588" y2="51.3053" gradientUnits="userSpaceOnUse">
<stop stop-color="#5622CD"/>
<stop offset="1" stop-color="#7C21CC"/>
</linearGradient>
<linearGradient id="paint23_linear_36_996" x1="6.48033" y1="154.182" x2="6.48033" y2="112.143" gradientUnits="userSpaceOnUse">
<stop stop-color="#5622CD"/>
<stop offset="1" stop-color="#7C21CC"/>
</linearGradient>
<linearGradient id="paint24_linear_36_996" x1="27.6752" y1="154.181" x2="27.6752" y2="112.142" gradientUnits="userSpaceOnUse">
<stop stop-color="#5622CD"/>
<stop offset="1" stop-color="#7C21CC"/>
</linearGradient>
<linearGradient id="paint25_linear_36_996" x1="100.63" y1="154.314" x2="100.63" y2="112.214" gradientUnits="userSpaceOnUse">
<stop stop-color="#5622CD"/>
<stop offset="1" stop-color="#7C21CC"/>
</linearGradient>
<linearGradient id="paint26_linear_36_996" x1="156.489" y1="154.314" x2="156.489" y2="112.214" gradientUnits="userSpaceOnUse">
<stop stop-color="#5622CD"/>
<stop offset="1" stop-color="#7C21CC"/>
</linearGradient>
<linearGradient id="paint27_linear_36_996" x1="62.0828" y1="154.215" x2="62.0828" y2="121.422" gradientUnits="userSpaceOnUse">
<stop stop-color="#5622CD"/>
<stop offset="1" stop-color="#7C21CC"/>
</linearGradient>
<linearGradient id="paint28_linear_36_996" x1="194.862" y1="154.215" x2="194.862" y2="121.422" gradientUnits="userSpaceOnUse">
<stop stop-color="#5622CD"/>
<stop offset="1" stop-color="#7C21CC"/>
</linearGradient>
<linearGradient id="paint29_linear_36_996" x1="128.508" y1="120.392" x2="128.508" y2="112.237" gradientUnits="userSpaceOnUse">
<stop stop-color="#5622CD"/>
<stop offset="1" stop-color="#7C21CC"/>
</linearGradient>
<linearGradient id="paint30_linear_36_996" x1="128.509" y1="154.221" x2="128.509" y2="121.124" gradientUnits="userSpaceOnUse">
<stop stop-color="#5622CD"/>
<stop offset="1" stop-color="#7C21CC"/>
</linearGradient>
</defs>
</svg>
